<?xml version="1.0" standalone="no"?>
<!DOCTYPE svg PUBLIC "-//W3C//DTD SVG 20010904//EN"
 "http://www.w3.org/TR/2001/REC-SVG-20010904/DTD/svg10.dtd">
<svg version="1.0" xmlns="http://www.w3.org/2000/svg"
 width="260.000000pt" height="260.000000pt" viewBox="0 0 260.000000 260.000000"
 preserveAspectRatio="xMidYMid meet">
<metadata>
Created by potrace 1.11, written by Peter Selinger 2001-2013
</metadata>
<g transform="translate(0.000000,260.000000) scale(0.100000,-0.100000)"
fill="#000000" stroke="none">
<path d="M556 2568 c9 -18 41 -75 71 -127 76 -131 163 -351 163 -411 0 -22
-73 -36 -249 -51 -63 -5 -116 -11 -118 -12 -2 -2 44 -51 103 -108 393 -386
737 -885 1052 -1521 89 -182 111 -218 128 -218 12 0 27 -7 34 -15 7 -9 14 -14
16 -12 2 2 -16 85 -41 184 -75 301 -115 524 -150 821 -19 166 -20 242 -2 242
66 0 327 -68 483 -125 67 -25 124 -45 128 -45 46 0 -173 267 -451 549 -129
131 -163 170 -163 192 0 58 42 262 84 409 25 85 43 156 41 159 -6 6 -42 -20
-125 -90 -78 -65 -212 -157 -292 -199 l-46 -24 -74 56 c-143 109 -317 222
-515 337 -87 50 -99 51 -77 9z"/>
<path d="M1750 68 c1 -23 26 -72 32 -63 7 14 -11 75 -22 75 -6 0 -10 -6 -10
-12z"/>
</g>
</svg>
